<?xml version="1.0" standalone="no"?>
<!DOCTYPE svg PUBLIC "-//W3C//DTD SVG 20010904//EN"
 "http://www.w3.org/TR/2001/REC-SVG-20010904/DTD/svg10.dtd">
<svg version="1.0" xmlns="http://www.w3.org/2000/svg"
 width="1280.000000pt" height="986.000000pt" viewBox="0 0 1280.000000 986.000000"
 preserveAspectRatio="xMidYMid meet">
<metadata>
Created by potrace 1.15, written by Peter Selinger 2001-2017
</metadata>
<g transform="translate(0.000000,986.000000) scale(0.100000,-0.100000)"
fill="#000000" stroke="none">
<path d="M11495 9770 c-87 -13 -183 -87 -238 -181 -15 -26 -179 -421 -365
-878 l-337 -831 -2419 0 c-1331 0 -2422 2 -2424 5 -3 3 174 6 394 7 219 1 375
3 347 5 -45 3 -53 7 -53 24 0 14 7 19 28 20 15 1 117 5 227 9 110 3 -1293 7
-3118 8 l-3318 2 -48 -24 c-68 -35 -103 -67 -134 -124 -42 -78 -44 -135 -8
-296 18 -77 43 -167 57 -200 31 -72 209 -655 1080 -3536 67 -219 88 -289 260
-855 93 -306 97 -324 99 -420 2 -149 46 -225 146 -256 36 -11 485 -13 769 -4
129 4 160 3 140 -6 -14 -7 -70 -33 -126 -60 -621 -295 -832 -1106 -438 -1685
271 -399 765 -580 1220 -448 618 179 962 853 754 1476 -85 255 -257 472 -485
611 -63 38 -211 107 -232 107 -6 0 -14 3 -16 8 -3 4 106 8 241 10 136 1 884 9
1662 17 1604 18 1694 19 1340 25 -140 2 -220 6 -177 7 57 3 77 7 77 18 0 7 12
16 28 18 15 2 -133 5 -328 7 l-355 3 425 7 c234 4 927 13 1540 19 613 7 1134
14 1158 17 33 4 42 9 42 24 0 11 12 26 28 34 15 8 39 27 55 43 17 19 129 256
301 639 150 335 599 1334 996 2219 397 886 774 1724 837 1864 62 139 117 270
122 290 7 27 504 1147 515 1158 3 4 457 -479 495 -527 69 -85 196 -107 263
-44 78 74 188 405 188 570 l0 64 -108 108 c-63 62 -177 197 -274 322 -255 329
-345 417 -533 525 -132 75 -214 98 -300 85z m-1530 -3172 c-114 -282 -208
-514 -210 -516 -1 -1 -21 4 -44 12 -35 13 -317 16 -2004 23 -1079 4 -1780 10
-1557 13 223 3 370 6 328 8 -60 1 -78 5 -78 16 0 11 -15 16 -52 19 -29 2 96 5
277 7 182 2 -264 7 -990 11 -726 3 -1969 7 -2761 8 l-1441 1 -16 58 c-48 176
-197 750 -197 760 0 9 498 12 2118 13 1164 1 2432 5 2817 8 489 5 616 8 420
11 -154 2 -256 5 -227 7 36 3 52 8 52 18 0 11 19 15 78 18 42 1 -114 5 -348 7
-234 3 578 7 1805 10 1227 3 2232 4 2234 3 2 -1 -90 -233 -204 -515z m-659
-1623 l-151 -375 -1725 3 c-949 1 -1545 4 -1325 7 220 3 376 6 348 8 -46 2
-53 5 -53 22 0 15 7 20 28 21 15 1 117 5 227 9 110 3 -930 7 -2311 8 l-2510 2
-74 278 c-40 152 -75 285 -78 295 -4 16 103 17 2134 18 1177 1 2319 5 2539 8
376 7 386 7 170 11 -126 2 -206 5 -177 7 37 3 52 8 52 19 0 11 18 15 78 16 42
2 -150 5 -428 8 -278 3 375 6 1451 8 l1956 2 -151 -375z m-506 -1142 c0 -4
-69 -175 -152 -380 l-153 -373 -1299 0 c-715 0 -1297 2 -1295 5 3 2 99 5 214
5 260 1 285 4 285 36 l0 24 298 3 c163 1 -775 3 -2085 5 -1311 1 -2383 5
-2383 8 0 4 -34 135 -75 292 -42 156 -74 286 -72 288 1 2 1143 7 2537 11 1394
4 2319 10 2055 13 -264 3 -434 6 -377 8 81 2 102 5 102 16 0 11 15 16 53 19
28 2 -74 5 -228 8 -175 2 10 6 495 9 1386 9 2080 10 2080 3z m-2917 -750 c-7
-2 -19 -2 -25 0 -7 3 -2 5 12 5 14 0 19 -2 13 -5z"/>
<path d="M6868 4673 c6 -2 18 -2 25 0 6 3 1 5 -13 5 -14 0 -19 -2 -12 -5z"/>
<path d="M7335 2203 c-475 -74 -846 -479 -883 -963 -18 -244 38 -476 163 -671
357 -553 1097 -650 1572 -206 550 515 404 1437 -279 1757 -135 63 -220 81
-393 85 -82 2 -163 1 -180 -2z"/>
<path d="M6894 2114 c-18 -14 -18 -15 4 -4 12 6 22 13 22 15 0 8 -5 6 -26 -11z"/>
<path d="M6849 2083 c-13 -16 -12 -17 4 -4 16 13 21 21 13 21 -2 0 -10 -8 -17
-17z"/>
<path d="M6727 1980 c-408 -390 -472 -1013 -152 -1489 53 -79 163 -196 235
-250 37 -27 35 -25 -10 15 -132 115 -216 221 -289 362 -54 106 -95 230 -110
332 -15 102 -6 393 14 470 60 234 165 413 332 570 47 44 83 80 80 80 -4 0 -49
-41 -100 -90z m-340 -862 c-2 -18 -4 -6 -4 27 0 33 2 48 4 33 2 -15 2 -42 0
-60z"/>
<path d="M6461 1424 c0 -11 3 -14 6 -6 3 7 2 16 -1 19 -3 4 -6 -2 -5 -13z"/>
<path d="M6442 1335 c0 -16 2 -22 5 -12 2 9 2 23 0 30 -3 6 -5 -1 -5 -18z"/>
<path d="M6433 1240 c0 -30 2 -43 4 -27 2 15 2 39 0 55 -2 15 -4 2 -4 -28z"/>
<path d="M6422 1150 c0 -19 2 -27 5 -17 2 9 2 25 0 35 -3 9 -5 1 -5 -18z"/>
<path d="M6433 1060 c0 -30 2 -43 4 -27 2 15 2 39 0 55 -2 15 -4 2 -4 -28z"/>
<path d="M6442 960 c0 -14 2 -19 5 -12 2 6 2 18 0 25 -3 6 -5 1 -5 -13z"/>
<path d="M6451 914 c0 -11 3 -14 6 -6 3 7 2 16 -1 19 -3 4 -6 -2 -5 -13z"/>
<path d="M6461 874 c0 -11 3 -14 6 -6 3 7 2 16 -1 19 -3 4 -6 -2 -5 -13z"/>
<path d="M6480 805 c0 -5 5 -17 10 -25 5 -8 10 -10 10 -5 0 6 -5 17 -10 25 -5
8 -10 11 -10 5z"/>
<path d="M6860 206 c0 -3 9 -10 20 -16 11 -6 20 -8 20 -6 0 3 -9 10 -20 16
-11 6 -20 8 -20 6z"/>
<path d="M6940 155 c0 -7 81 -47 86 -43 2 3 -17 14 -41 26 -25 12 -45 20 -45
17z"/>
</g>
</svg>
